<svg width="195" height="32" viewBox="0 0 195 32" fill="none" xmlns="http://www.w3.org/2000/svg">
<path fill-rule="evenodd" clip-rule="evenodd" d="M0.481445 0.901872L3.41361 4.2086V28.4108L1.24042 31.5775L14.5499 31.5979L12.1509 28.684L11.9018 19.968L24.735 20.0376C28.6248 18.7426 32.6235 15.9816 32.8156 10.3997C32.7543 4.99044 29.4517 1.52099 25.6174 0.830727L0.481445 0.901872ZM11.4263 2.44965V17.9979L21.2725 18.069C23.5129 16.2624 25.2113 14.8788 25.1433 10.5413C25.1112 7.00445 24.3647 3.92024 21.0687 2.45041L11.4263 2.44965ZM38.9751 0.725524L41.9072 4.03301V28.2352L39.7341 31.4034L53.0428 31.4223L50.6438 28.5084L50.3947 19.7924H50.4481L64.198 31.5207L75.6089 31.4276L65.1944 22.4194H56.5001L53.4358 19.809L63.2279 19.862C67.1177 18.567 71.1157 15.806 71.3085 10.2241C71.2479 4.8156 67.9454 1.34539 64.1103 0.655892L38.9751 0.725524ZM49.9192 2.27331V17.8215L59.7654 17.8927C62.0065 16.086 63.7042 14.7025 63.6362 10.3642C63.6041 6.8281 62.8576 3.74313 59.5616 2.27331H49.9192ZM86.5947 0.690708H98.0706L113.009 28.4108C113.655 30.5512 115.589 30.287 116.88 31.2255H102.416L104.589 30.5459L104.454 28.4819L100.719 22.5012L88.0206 22.5723L85.3046 28.3419C85.214 28.9981 84.512 29.4961 85.0329 30.3112L86.0519 31.2959L79.8048 31.1551L82.5215 30.3112L92.7738 8.71193V7.23378L88.4421 1.45514L86.5947 0.690708ZM88.8234 20.5977L94.0975 10.6124L99.5885 20.5417L88.8234 20.5977ZM164.196 0.751257H175.671L190.611 28.4713C191.257 30.6117 193.191 30.3476 194.481 31.2861H180.017L182.19 30.6049L182.054 28.5409L178.32 22.5617L165.622 22.6329L162.906 28.4009C162.815 29.0586 162.114 29.5567 162.634 30.3718L163.653 31.3565L157.406 31.2157L160.123 30.3718L170.375 8.77248V7.29357L166.044 1.51569L164.196 0.751257ZM166.425 20.659L171.699 10.6737L177.191 20.6015L166.425 20.659ZM120.849 0.402344L141.292 0.515116C147.875 2.05684 152.064 6.07881 153.362 13.0949L153.308 18.567C152.107 24.8187 148.175 29.1321 141.238 31.3156L120.74 31.3731L120.737 30.7109C123.853 30.4755 124.102 30.1198 124.11 28.27V3.33518C124.075 1.96753 123.802 1.11606 120.794 1.02221L120.849 0.402344ZM132.469 2.53594L132.449 29.5135C135.146 29.5226 137.485 29.7754 138.806 29.101C141.8 27.7334 143.191 25.6331 143.318 23.6599L143.247 7.73028C143.247 5.18192 140.482 3.38286 138.885 2.91437C137.743 2.49128 135.465 2.47387 132.469 2.53594Z" fill="white" stroke="white" stroke-width="1.02419" stroke-miterlimit="2.613"/>
</svg>
